<svg xmlns="http://www.w3.org/2000/svg" xmlns:xlink="http://www.w3.org/1999/xlink" width="500" zoomAndPan="magnify" viewBox="0 0 375 374.999991" height="500" preserveAspectRatio="xMidYMid meet" version="1.0"><defs><g/><clipPath id="6a05248b9a"><path d="M 160 92.484375 L 215 92.484375 L 215 169 L 160 169 Z M 160 92.484375 " clip-rule="nonzero"/></clipPath><clipPath id="89b31a4067"><path d="M 90.222656 101 L 284 101 L 284 186 L 90.222656 186 Z M 90.222656 101 " clip-rule="nonzero"/></clipPath></defs><g clip-path="url(#6a05248b9a)"><path fill="#100f0d" d="M 212.960938 154.144531 C 212.804688 154.5 212.632812 154.855469 212.453125 155.203125 C 211.113281 157.808594 209.03125 160.433594 205.890625 162.855469 C 203.925781 164.375 201.777344 165.617188 199.515625 166.570312 C 203.734375 162.699219 203.792969 157.226562 203.792969 157.226562 C 203.792969 157.226562 202.890625 161.511719 200.441406 161.480469 C 197.988281 161.445312 199.433594 159.28125 199.433594 159.28125 C 207.148438 150.667969 200.179688 144.839844 200.039062 144.726562 C 202.660156 149.054688 200.738281 154.199219 197.003906 153.328125 C 193.269531 152.460938 194.808594 145.914062 194.898438 139.644531 C 194.992188 133.375 190.660156 131.296875 190.660156 131.296875 C 192.144531 133.828125 191.867188 136.609375 191.328125 138.574219 C 190.917969 140.078125 188.953125 140.492188 188.015625 139.246094 C 186.078125 136.675781 186.335938 132.914062 187.953125 129.257812 C 190.003906 124.632812 188.425781 121.414062 188.355469 121.277344 C 188.378906 121.417969 188.828125 124.453125 183.839844 128.011719 C 178.730469 131.660156 179.003906 137.746094 180.328125 140.625 C 181.652344 143.503906 181.058594 150.511719 175.871094 148.183594 C 170.777344 145.902344 173.96875 138.214844 174.085938 137.941406 C 163.664062 157.914062 171.894531 165.566406 178.679688 168.464844 C 171.207031 167.003906 155.253906 160.4375 162.859375 130.945312 C 162.859375 130.945312 163.019531 140.386719 168.3125 141.507812 C 173.605469 142.628906 163.074219 116.382812 174.515625 111.578125 C 174.429688 111.730469 170.183594 119.609375 175.476562 122.671875 C 180.824219 125.769531 174.410156 102.082031 189.269531 92.476562 C 189.125 92.6875 182.804688 101.925781 187.667969 107.414062 C 192.585938 112.964844 193.867188 114.988281 196.433594 121.820312 C 199 128.652344 200.390625 121.710938 199.640625 117.445312 C 198.90625 113.238281 202.425781 109.027344 202.527344 108.910156 C 202.460938 109.132812 200.050781 117.222656 206.484375 124.273438 C 207.921875 125.847656 208.761719 127.808594 208.6875 129.953125 C 208.621094 131.941406 207.898438 133.847656 207.152344 135.667969 C 206.347656 137.625 205.410156 139.566406 205.066406 141.675781 C 204.808594 143.242188 204.769531 145.546875 206.191406 146.617188 C 207.324219 147.464844 208.804688 147.167969 209.902344 146.417969 C 211.25 145.5 212.160156 144.03125 212.625 142.46875 C 213.089844 140.90625 213.136719 139.246094 213.015625 137.621094 C 215.144531 142.84375 215.253906 148.957031 212.960938 154.144531 " fill-opacity="1" fill-rule="nonzero"/></g><g clip-path="url(#89b31a4067)"><path fill="#100f0d" d="M 232.210938 138.953125 C 230.941406 138.289062 230.5 136.609375 231.191406 135.152344 L 241.542969 113.535156 C 241.644531 113.332031 241.757812 113.128906 241.890625 112.941406 C 243.003906 111.292969 245.042969 110.621094 246.65625 111.46875 C 248.457031 112.414062 249.003906 114.855469 247.859375 116.839844 L 235.917969 137.625 C 235.113281 139.027344 233.476562 139.613281 232.210938 138.953125 Z M 254.414062 121.683594 C 255.632812 119.742188 258.046875 119.0625 259.730469 120.203125 C 261.363281 121.3125 261.65625 123.707031 260.410156 125.542969 C 260.378906 125.585938 260.347656 125.636719 260.3125 125.679688 L 246.09375 144.984375 C 245.132812 146.292969 243.445312 146.6875 242.261719 145.882812 C 241.078125 145.078125 240.820312 143.363281 241.675781 141.992188 Z M 272.6875 129.109375 C 274.066406 130.289062 274.191406 132.433594 273.078125 134.074219 C 272.949219 134.261719 272.808594 134.441406 272.644531 134.617188 L 256.335938 152.191406 C 255.234375 153.375 253.507812 153.578125 252.421875 152.648438 C 251.335938 151.71875 251.273438 149.984375 252.28125 148.722656 L 267.238281 129.976562 C 268.671875 128.1875 271.144531 127.789062 272.6875 129.109375 Z M 250.066406 160.988281 C 255.6875 161.871094 261.339844 159.660156 264.859375 155.203125 L 281.542969 134.117188 C 284.371094 130.554688 283.566406 125.347656 279.800781 122.796875 L 249.917969 102.542969 C 246.152344 99.992188 241.003906 101.167969 238.726562 105.101562 L 225.242188 128.355469 C 222.398438 133.269531 222.421875 139.328125 225.304688 144.210938 L 232.539062 156.449219 L 215.914062 180.878906 L 156.730469 180.878906 L 148.609375 170.074219 C 147.566406 168.691406 146.839844 167.101562 146.484375 165.417969 L 145.867188 162.464844 C 145.695312 161.683594 145.597656 160.898438 145.550781 160.109375 C 145.414062 157.640625 145.851562 155.167969 146.777344 152.84375 C 147.257812 151.648438 147.464844 150.359375 147.394531 149.074219 C 147.300781 147.394531 146.722656 145.71875 145.632812 144.269531 L 107.332031 101.195312 L 109.578125 107.933594 L 131.679688 137.375 C 132.679688 138.714844 133.207031 140.246094 133.289062 141.792969 C 133.441406 144.40625 132.316406 147.03125 130.0625 148.742188 C 126.359375 151.535156 120.972656 150.683594 118.203125 146.980469 L 96.203125 117.671875 L 90.320312 113.574219 L 120.882812 162.273438 C 122.796875 164.824219 125.824219 166.078125 128.816406 165.878906 C 132.136719 165.652344 135.457031 166.28125 138.375 167.863281 L 141.277344 169.441406 C 142.808594 170.269531 144.136719 171.417969 145.171875 172.800781 L 151.246094 180.878906 L 99.132812 180.878906 L 99.132812 185.589844 L 274.417969 185.589844 L 274.417969 180.878906 L 220.980469 180.878906 L 236.007812 158.796875 L 250.066406 160.988281 " fill-opacity="1" fill-rule="nonzero"/></g><path fill="#100f0d" d="M 187.796875 222.207031 L 186.804688 220.886719 L 188.699219 220.886719 Z M 221.257812 270.445312 C 223.292969 268.972656 226.148438 269.398438 227.648438 271.390625 C 228.195312 272.121094 228.484375 272.964844 228.535156 273.8125 C 228.617188 275.269531 227.96875 276.746094 226.691406 277.683594 C 224.660156 279.160156 221.800781 278.730469 220.300781 276.734375 C 219.753906 276.003906 219.457031 275.164062 219.414062 274.316406 C 219.332031 272.859375 219.972656 271.382812 221.257812 270.445312 Z M 158.46875 276.753906 C 157.121094 278.738281 154.417969 279.253906 152.4375 277.910156 C 150.453125 276.566406 149.9375 273.863281 151.285156 271.882812 C 152.632812 269.90625 155.332031 269.390625 157.316406 270.734375 C 159.296875 272.078125 159.8125 274.773438 158.46875 276.753906 Z M 191.902344 216.175781 L 99.132812 216.175781 L 99.132812 220.886719 L 181.328125 220.886719 L 183.421875 223.675781 L 185.191406 226.03125 L 180.886719 232.367188 C 179.082031 232.089844 177.191406 232.835938 176.101562 234.445312 L 149.347656 270.207031 C 146.992188 273.355469 147.75 277.816406 150.996094 280.019531 C 154.25 282.226562 158.6875 281.277344 160.746094 277.933594 L 184.183594 239.921875 C 184.941406 238.808594 185.179688 237.492188 184.941406 236.265625 C 184.839844 235.726562 184.636719 235.199219 184.355469 234.714844 L 187.851562 229.574219 L 191.34375 234.230469 C 191.066406 234.738281 190.875 235.292969 190.789062 235.859375 C 190.738281 236.203125 190.71875 236.550781 190.738281 236.894531 C 190.792969 237.84375 191.121094 238.792969 191.738281 239.613281 L 217.960938 278.046875 C 220.265625 281.425781 224.964844 282.230469 228.289062 279.8125 C 230.335938 278.324219 231.347656 275.984375 231.214844 273.667969 C 231.132812 272.222656 230.609375 270.785156 229.609375 269.574219 L 200.003906 233.601562 C 198.78125 231.980469 196.769531 231.289062 194.886719 231.648438 L 190.453125 225.75 L 193.765625 220.886719 L 274.417969 220.886719 L 274.417969 216.175781 L 191.902344 216.175781 " fill-opacity="1" fill-rule="nonzero"/><g fill="#000000" fill-opacity="1"><g transform="translate(56.075773, 206.551774)"><g><path d="M 5.085938 -11.199219 L 0.832031 -11.199219 L 0.832031 0 L 5.085938 0 C 8.671875 0 10.496094 -2 10.496094 -5.597656 C 10.496094 -9.199219 8.671875 -11.199219 5.085938 -11.199219 Z M 4.863281 -2.113281 L 3.28125 -2.113281 L 3.28125 -9.085938 L 4.863281 -9.085938 C 7.230469 -9.085938 8.046875 -8.0625 8.046875 -5.597656 C 8.046875 -3.136719 7.230469 -2.113281 4.863281 -2.113281 Z M 4.863281 -2.113281 "/></g></g></g><g fill="#000000" fill-opacity="1"><g transform="translate(79.881111, 206.551774)"><g><path d="M 8.574219 0 L 11.199219 0 L 6.878906 -11.199219 L 4.6875 -11.199219 L 0.351562 0 L 2.992188 0 L 3.710938 -2.09375 L 7.855469 -2.09375 Z M 4.320312 -3.886719 L 5.773438 -8.175781 L 7.246094 -3.886719 Z M 4.320312 -3.886719 "/></g></g></g><g fill="#000000" fill-opacity="1"><g transform="translate(104.230317, 206.551774)"><g><path d="M 5.328125 -11.199219 L 0.832031 -11.199219 L 0.832031 0 L 3.28125 0 L 3.28125 -3.421875 L 5.328125 -3.421875 C 8.300781 -3.421875 9.628906 -5.023438 9.628906 -7.3125 C 9.628906 -9.613281 8.300781 -11.199219 5.328125 -11.199219 Z M 5.296875 -5.535156 L 3.28125 -5.535156 L 3.28125 -9.085938 L 5.296875 -9.085938 C 6.445312 -9.085938 7.039062 -8.414062 7.039062 -7.3125 C 7.039062 -6.222656 6.445312 -5.535156 5.296875 -5.535156 Z M 5.296875 -5.535156 "/></g></g></g><g fill="#000000" fill-opacity="1"><g transform="translate(127.091886, 206.551774)"><g><path d="M 5.917969 -11.34375 C 2.703125 -11.34375 0.59375 -9.230469 0.59375 -5.597656 C 0.59375 -2 2.703125 0.144531 5.917969 0.144531 C 9.132812 0.144531 11.230469 -2 11.230469 -5.597656 C 11.230469 -9.230469 9.132812 -11.34375 5.917969 -11.34375 Z M 5.917969 -1.96875 C 4.144531 -1.96875 3.152344 -3.359375 3.152344 -5.597656 C 3.152344 -7.855469 4.144531 -9.230469 5.917969 -9.230469 C 7.679688 -9.230469 8.671875 -7.855469 8.671875 -5.597656 C 8.671875 -3.359375 7.679688 -1.96875 5.917969 -1.96875 Z M 5.917969 -1.96875 "/></g></g></g><g fill="#000000" fill-opacity="1"><g transform="translate(151.713024, 206.551774)"><g><path d="M 9.949219 -1.871094 L 9.949219 -2.703125 C 9.949219 -3.839844 9.519531 -4.589844 8.285156 -5.167969 C 9.085938 -5.664062 9.839844 -6.414062 9.839844 -7.824219 C 9.839844 -9.726562 8.589844 -11.199219 5.664062 -11.199219 L 0.832031 -11.199219 L 0.832031 0 L 3.28125 0 L 3.28125 -4.0625 L 5.949219 -4.0625 C 6.910156 -4.0625 7.503906 -3.503906 7.503906 -2.625 L 7.503906 -1.871094 C 7.503906 -0.945312 7.566406 -0.480469 7.824219 0 L 10.269531 0 C 10 -0.480469 9.949219 -0.945312 9.949219 -1.871094 Z M 5.566406 -5.984375 L 3.28125 -5.984375 L 3.28125 -9.085938 L 5.613281 -9.085938 C 6.703125 -9.085938 7.3125 -8.605469 7.3125 -7.597656 C 7.3125 -6.527344 6.863281 -5.984375 5.566406 -5.984375 Z M 5.566406 -5.984375 "/></g></g></g><g fill="#000000" fill-opacity="1"><g transform="translate(175.214426, 206.551774)"><g/></g></g><g fill="#000000" fill-opacity="1"><g transform="translate(192.285371, 206.551774)"><g><path d="M 10.285156 -11.199219 L 7.839844 -11.199219 L 7.839844 -3.917969 L 7.789062 -3.917969 L 3.3125 -11.199219 L 0.832031 -11.199219 L 0.832031 0 L 3.28125 0 L 3.28125 -7.136719 L 3.328125 -7.136719 L 7.710938 0 L 10.285156 0 Z M 10.285156 -11.199219 "/></g></g></g><g fill="#000000" fill-opacity="1"><g transform="translate(216.202675, 206.551774)"><g><path d="M 8.574219 0 L 11.199219 0 L 6.878906 -11.199219 L 4.6875 -11.199219 L 0.351562 0 L 2.992188 0 L 3.710938 -2.09375 L 7.855469 -2.09375 Z M 4.320312 -3.886719 L 5.773438 -8.175781 L 7.246094 -3.886719 Z M 4.320312 -3.886719 "/></g></g></g><g fill="#000000" fill-opacity="1"><g transform="translate(240.551878, 206.551774)"><g><path d="M 10.0625 -4.335938 L 10.0625 -11.199219 L 7.613281 -11.199219 L 7.613281 -4.429688 C 7.613281 -2.765625 6.816406 -1.96875 5.457031 -1.96875 C 4.09375 -1.96875 3.28125 -2.765625 3.28125 -4.429688 L 3.28125 -11.199219 L 0.832031 -11.199219 L 0.832031 -4.335938 C 0.832031 -1.457031 2.703125 0.144531 5.457031 0.144531 C 8.175781 0.144531 10.0625 -1.457031 10.0625 -4.335938 Z M 10.0625 -4.335938 "/></g></g></g><g fill="#000000" fill-opacity="1"><g transform="translate(264.245232, 206.551774)"><g><path d="M 8.238281 -9.085938 L 8.238281 -11.199219 L 0.832031 -11.199219 L 0.832031 0 L 3.28125 0 L 3.28125 -4.542969 L 7.375 -4.542969 L 7.375 -6.511719 L 3.28125 -6.511719 L 3.28125 -9.085938 Z M 8.238281 -9.085938 "/></g></g></g><g fill="#000000" fill-opacity="1"><g transform="translate(285.763122, 206.551774)"><g><path d="M 8.574219 0 L 11.199219 0 L 6.878906 -11.199219 L 4.6875 -11.199219 L 0.351562 0 L 2.992188 0 L 3.710938 -2.09375 L 7.855469 -2.09375 Z M 4.320312 -3.886719 L 5.773438 -8.175781 L 7.246094 -3.886719 Z M 4.320312 -3.886719 "/></g></g></g><g fill="#000000" fill-opacity="1"><g transform="translate(310.112325, 206.551774)"><g><path d="M 3.28125 -2.113281 L 3.28125 -11.199219 L 0.832031 -11.199219 L 0.832031 0 L 8.382812 0 L 8.382812 -2.113281 Z M 3.28125 -2.113281 "/></g></g></g></svg>